
<svg version="1.0" xmlns="http://www.w3.org/2000/svg"
 width="100%" height="100%" viewBox="0 0 3780.000000 378.000000"
 preserveAspectRatio="xMidYMid meet">
<path d="M0 1890 l0 -1890 18900 0 18900 0 0 1890 0 1890 -18900 0 -18900 0 0
-1890z m3293 1863 c-7 -2 -19 -2 -25 0 -7 3 -2 5 12 5 14 0 19 -2 13 -5z m-46
-9 c-3 -3 -12 -4 -19 -1 -8 3 -5 6 6 6 11 1 17 -2 13 -5z m145 -23 c26 -17 54
-41 64 -55 12 -20 25 -26 53 -27 20 -1 47 -5 61 -9 16 -5 3 -6 -34 -3 l-58 6
16 -31 c9 -17 16 -35 16 -39 -1 -4 -10 9 -21 31 -20 38 -21 38 -67 32 -25 -3
-64 -17 -87 -31 -49 -28 -108 -92 -100 -106 4 -5 30 -23 58 -39 29 -16 48 -30
44 -30 -13 0 -85 39 -92 50 -10 16 -23 12 -30 -11 -4 -11 -9 -18 -12 -16 -2 3
0 14 6 24 8 16 3 29 -25 68 -18 27 -34 56 -34 64 0 9 9 -3 21 -26 34 -70 44
-72 90 -25 46 49 86 71 152 87 l47 10 -38 38 c-22 21 -57 45 -78 52 -24 9 -31
14 -18 15 11 0 41 -13 66 -29z m-205 -5 c-14 -13 -29 -37 -32 -53 -11 -46 -15
-51 -10 -9 4 37 37 86 58 86 6 0 -2 -11 -16 -24z m773 -68 c38 -63 19 -170
-39 -216 -34 -27 -92 -52 -143 -63 -29 -6 -74 -21 -99 -34 -25 -13 -65 -27
-90 -30 l-44 -5 53 15 c29 8 63 21 75 27 20 12 14 14 -53 19 l-75 5 87 2 c87
2 88 2 104 34 36 69 -6 150 -100 198 -24 12 -30 18 -16 14 41 -9 102 -56 122
-94 19 -35 20 -91 3 -132 -6 -16 -3 -17 26 -12 83 16 157 62 185 116 21 40 18
117 -6 156 -11 17 -17 32 -15 32 3 0 14 -15 25 -32z m-432 -153 c0 -16 -2 -15
-8 5 -11 34 -11 60 0 35 5 -11 8 -29 8 -40z m-923 15 c-27 -5 -63 -8 -80 -8
-29 1 -29 1 5 8 19 4 55 7 80 7 l45 0 -50 -7z m150 -11 c20 -5 9 -6 -30 -2
-33 3 -62 7 -64 9 -8 7 63 2 94 -7z m-309 -14 c-170 -47 -296 -159 -348 -310
-10 -27 -17 -40 -18 -29 0 12 16 53 35 91 39 79 124 167 195 203 60 31 140 59
165 59 11 -1 -2 -7 -29 -14z m500 -30 c64 -20 143 -47 175 -60 36 -14 59 -19
59 -12 0 6 6 4 13 -5 6 -9 29 -21 50 -28 21 -7 36 -14 34 -16 -2 -2 -23 2 -45
10 l-42 15 -1 -37 -2 -37 -6 40 c-6 38 -8 40 -81 68 -41 16 -127 44 -190 62
-63 19 -107 34 -98 35 9 0 69 -16 134 -35z m594 -47 c0 -35 -4 -58 -8 -52 -4
6 -27 16 -52 22 l-45 11 48 -6 47 -5 0 46 c0 25 2 46 5 46 3 0 5 -28 5 -62z
m-343 0 c-3 -8 -6 -5 -6 6 -1 11 2 17 5 13 3 -3 4 -12 1 -19z m203 -3 c19 -7
28 -14 20 -14 -8 0 -28 6 -45 14 -39 17 -21 18 25 0z m128 -120 c-60 -79 -123
-126 -165 -124 -11 0 -7 4 9 9 43 13 96 49 118 80 11 15 20 31 20 33 0 3 -19
8 -42 10 l-43 4 48 1 c41 2 47 5 48 25 1 21 1 21 8 -3 4 -14 4 -29 -1 -35z
m-188 35 c20 -6 21 -8 5 -8 -11 0 -29 3 -40 8 -25 11 1 11 35 0z m73 -17 c-7
-2 -21 -2 -30 0 -10 3 -4 5 12 5 17 0 24 -2 18 -5z m-174 -97 c9 -10 30 -25
46 -32 23 -10 25 -13 10 -14 -11 0 -30 7 -42 15 -25 18 -63 76 -63 96 1 8 8 1
17 -16 8 -16 23 -38 32 -49z m1404 35 c195 -50 308 -152 322 -289 l5 -47 -13
55 c-18 77 -51 132 -106 174 -182 138 -469 154 -807 45 -129 -42 -239 -92
-451 -207 -72 -40 -135 -72 -140 -72 -14 0 296 170 392 215 114 54 256 101
376 125 132 26 321 26 422 1z m-2216 -78 c-20 -2 -52 -2 -70 0 -17 2 0 4 38 4
39 0 53 -2 32 -4z m-129 -10 c-10 -2 -26 -2 -35 0 -10 3 -2 5 17 5 19 0 27 -2
18 -5z m235 0 c-13 -2 -33 -2 -45 0 -13 2 -3 4 22 4 25 0 35 -2 23 -4z m-338
-18 c-111 -29 -115 -32 -115 -84 0 -178 119 -337 305 -408 33 -13 47 -21 30
-18 -97 18 -248 132 -294 223 -28 54 -51 145 -51 199 0 24 -3 43 -6 43 -17 0
-118 -66 -164 -107 -61 -55 -104 -115 -136 -191 -13 -31 -23 -50 -23 -42 -1
26 49 123 90 177 44 56 118 117 189 154 25 13 47 27 50 30 7 8 131 37 155 37
11 0 -2 -6 -30 -13z m500 -5 c107 -24 237 -61 231 -67 -2 -2 -36 6 -75 17 -39
12 -122 32 -184 45 -61 13 -101 24 -87 24 14 0 66 -8 115 -19z m395 -122 c10
-6 7 -7 -10 -2 -14 3 -32 11 -40 16 -10 6 -7 7 10 2 14 -3 32 -11 40 -16z
m340 -24 c6 -14 10 -45 10 -69 0 -34 5 -48 23 -60 l22 -17 -22 7 -23 6 0 -155
c0 -86 2 -156 4 -156 3 0 47 26 98 58 51 32 117 71 146 87 29 16 49 31 45 35
-5 3 -61 30 -126 60 -64 29 -116 55 -114 57 2 2 62 -23 133 -56 l129 -58 48
24 c27 13 52 22 55 19 3 -3 1 -6 -4 -6 -5 0 -24 -9 -43 -21 -27 -16 -31 -23
-20 -30 10 -7 6 -8 -12 -4 -20 5 -49 -7 -125 -51 -141 -81 -204 -122 -209
-137 -2 -6 -9 -457 -16 -1002 -6 -545 -15 -1046 -18 -1115 l-6 -125 -8 155
c-11 211 -27 1053 -27 1391 0 152 -3 310 -6 351 l-7 75 -68 23 c-38 13 -67 26
-64 28 3 3 69 -16 123 -36 9 -3 12 21 12 102 l0 107 -100 -68 c-54 -38 -99
-71 -100 -75 0 -3 12 -11 28 -16 15 -6 22 -11 15 -11 -6 -1 -23 3 -36 8 -21 8
-42 0 -137 -54 -62 -34 -159 -82 -216 -104 -110 -43 -281 -92 -318 -90 -11 1
8 7 44 15 127 27 289 87 425 158 76 39 140 76 142 83 2 6 -13 14 -37 18 -23 4
-39 9 -36 12 3 3 27 0 55 -7 l50 -12 110 77 111 77 0 180 c0 140 -3 179 -12
175 -7 -3 -74 -32 -148 -65 -74 -33 -146 -63 -160 -67 -49 -15 -12 5 85 45 54
23 129 57 165 75 l68 34 4 60 c4 60 19 91 44 91 8 0 19 -12 24 -26z m-290 6
c8 -5 11 -10 5 -10 -5 0 -17 5 -25 10 -8 5 -10 10 -5 10 6 0 17 -5 25 -10z
m120 -47 c50 -20 88 -38 86 -40 -4 -4 -176 64 -185 73 -11 10 16 1 99 -33z
m1480 -19 c51 -9 117 -25 148 -35 66 -23 60 -23 65 -1 4 13 5 12 6 -4 1 -15
18 -33 51 -54 68 -44 125 -110 152 -179 18 -45 22 -76 23 -161 0 -99 -2 -109
-33 -172 -43 -89 -134 -173 -244 -227 -87 -43 -219 -82 -272 -80 -18 1 1 7 42
15 222 40 386 145 462 294 93 182 19 423 -157 513 l-31 17 -26 -44 c-14 -25
-45 -60 -67 -80 -39 -33 -172 -96 -201 -96 -7 1 22 14 65 31 54 21 94 46 133
81 46 43 84 93 84 112 0 10 -109 44 -180 57 -84 14 -252 17 -380 7 -104 -8
-93 0 16 11 129 14 245 12 344 -5z m-457 -21 c-7 -2 -19 -2 -25 0 -7 3 -2 5
12 5 14 0 19 -2 13 -5z m-50 -10 c-7 -2 -19 -2 -25 0 -7 3 -2 5 12 5 14 0 19
-2 13 -5z m-118 -28 c-44 -13 -81 -22 -83 -20 -6 5 119 43 143 43 11 1 -16
-10 -60 -23z m-105 -35 c-8 -5 -19 -10 -25 -10 -5 0 -3 5 5 10 8 5 20 10 25
10 6 0 3 -5 -5 -10z m-50 -20 c-8 -5 -19 -10 -25 -10 -5 0 -3 5 5 10 8 5 20
10 25 10 6 0 3 -5 -5 -10z m3105 -306 c0 -222 1 -236 19 -250 18 -13 13 -14
-48 -14 -61 0 -66 1 -52 16 14 13 16 47 16 219 0 184 -2 205 -17 214 -14 8
-15 10 -3 11 11 0 84 34 85 39 0 1 0 -105 0 -235z m-5331 144 c-17 -254 124
-475 356 -556 41 -14 52 -21 30 -17 -64 9 -179 74 -240 135 -117 117 -181 318
-154 483 11 61 13 43 8 -45z m3971 -153 c54 -130 105 -240 114 -245 11 -6 -10
-9 -64 -9 -58 0 -74 3 -57 9 28 12 28 23 -2 96 -17 39 -30 59 -41 58 -12 -2
-13 1 -5 11 8 10 -1 42 -36 127 -26 62 -50 115 -53 118 -3 3 -11 20 -18 38
l-11 32 37 0 37 0 99 -235z m-2705 196 c-8 -5 -26 -11 -40 -15 -21 -5 -20 -3
5 9 32 15 60 20 35 6z m845 -1 c13 -6 15 -9 5 -9 -8 0 -22 4 -30 9 -18 12 -2
12 25 0z m-915 -25 c0 -6 -129 -45 -149 -44 -9 0 18 11 59 24 83 25 90 27 90
20z m1027 -11 c-3 -3 -12 -4 -19 -1 -8 3 -5 6 6 6 11 1 17 -2 13 -5z m88 -19
c58 -14 59 -14 11 -9 -27 3 -58 9 -70 14 -32 13 -8 11 59 -5z m592 -11 c-3 -3
-12 -4 -19 -1 -8 3 -5 6 6 6 11 1 17 -2 13 -5z m-1913 -16 c-48 -8 -208 -8
-248 1 -16 3 42 6 129 6 89 0 141 -3 119 -7z m1419 5 c-7 -2 -19 -2 -25 0 -7
3 -2 5 12 5 14 0 19 -2 13 -5z m450 0 c-7 -2 -19 -2 -25 0 -7 3 -2 5 12 5 14
0 19 -2 13 -5z m-134 -19 c8 -7 -193 -2 -244 5 -29 5 12 6 95 3 80 -3 147 -6
149 -8z m69 9 c-10 -2 -26 -2 -35 0 -10 3 -2 5 17 5 19 0 27 -2 18 -5z m1988
-65 c10 -9 12 -24 8 -46 -7 -35 -24 -44 -24 -12 0 37 -44 70 -93 70 -83 0 -88
-52 -9 -96 128 -72 156 -109 127 -164 -27 -52 -137 -76 -210 -46 -37 16 -43
39 -25 96 8 23 8 24 9 3 3 -76 87 -127 150 -93 51 26 28 79 -53 127 -34 19
-71 44 -83 56 -48 44 -15 108 62 125 49 10 121 0 141 -20z m352 -13 c16 -19
22 -39 22 -71 0 -43 -1 -44 -33 -44 -31 0 -33 2 -29 29 5 33 -20 86 -47 101
-11 5 -32 11 -48 11 -25 2 -25 2 7 8 51 10 102 -4 128 -34z m-866 22 c-12 -6
-22 -16 -22 -23 0 -18 91 -228 102 -235 6 -4 -1 -27 -16 -55 -14 -27 -25 -43
-26 -35 0 20 -130 323 -145 341 -12 13 -5 15 58 16 54 0 66 -2 49 -9z m199
-13 c-10 -14 -17 -18 -19 -9 -2 7 -13 17 -25 23 -19 9 -16 10 19 9 41 -1 42
-1 25 -23z m464 -24 c-62 -120 71 -284 192 -235 l38 15 -25 -20 c-37 -29 -87
-43 -133 -37 -126 17 -181 175 -95 272 37 43 43 44 23 5z m973 -119 c-12 -20
-12 -20 -26 0 -11 15 -11 23 -2 34 10 13 14 13 26 0 12 -12 12 -18 2 -34z
m-2201 -43 c-15 -9 -19 -4 -11 16 5 14 9 15 15 5 5 -8 3 -17 -4 -21z m-2694
15 c-13 -2 -35 -2 -50 0 -16 2 -5 4 22 4 28 0 40 -2 28 -4z m175 0 c-21 -2
-55 -2 -75 0 -21 2 -4 4 37 4 41 0 58 -2 38 -4z m-265 -10 c-7 -2 -19 -2 -25
0 -7 3 -2 5 12 5 14 0 19 -2 13 -5z m355 0 c-10 -2 -26 -2 -35 0 -10 3 -2 5
17 5 19 0 27 -2 18 -5z m-445 -25 c-103 -40 -168 -120 -180 -219 l-6 -49 49
-2 49 -1 -42 -4 c-35 -3 -43 -8 -43 -24 0 -32 27 -75 72 -114 41 -35 41 -36
10 -21 -35 18 -92 97 -92 128 0 10 -10 23 -22 28 -15 6 -18 9 -7 9 12 1 18 14
22 50 7 63 35 116 84 163 38 37 114 78 143 77 8 0 -8 -10 -37 -21z m4867 12
c0 -5 -4 -10 -10 -10 -5 0 -10 5 -10 10 0 6 5 10 10 10 6 0 10 -4 10 -10z
m-2004 -91 c13 -5 6 -8 -24 -8 l-43 -1 18 24 c15 20 19 21 24 8 3 -8 14 -19
25 -23z m2114 5 c0 -8 16 -24 36 -36 33 -19 35 -22 17 -29 -11 -4 -32 -22 -47
-41 -14 -18 -26 -27 -26 -19 0 22 -41 61 -63 61 -16 0 -13 5 14 23 19 12 38
32 44 44 10 23 25 21 25 -3z m-3815 -110 c66 -20 179 -52 250 -70 72 -18 122
-33 113 -34 -52 -1 -605 157 -632 181 -5 5 26 -3 70 -16 43 -14 133 -42 199
-61z m2175 31 c0 -28 48 -67 71 -60 15 5 19 4 15 -4 -12 -19 -84 -13 -106 9
-17 17 -18 24 -8 45 13 28 28 33 28 10z m-3571 -121 c8 -7 -114 -2 -144 6 -17
4 8 5 55 2 47 -2 87 -6 89 -8z m481 -56 c0 -91 -138 -170 -245 -140 l-40 11
47 -6 c140 -16 264 81 216 170 -10 20 -10 21 5 8 10 -7 17 -27 17 -43z m1333
35 c-7 -2 -19 -2 -25 0 -7 3 -2 5 12 5 14 0 19 -2 13 -5z m65 -10 c-10 -2 -26
-2 -35 0 -10 3 -2 5 17 5 19 0 27 -2 18 -5z m95 -10 c-13 -2 -35 -2 -50 0 -16
2 -5 4 22 4 28 0 40 -2 28 -4z m229 -10 c-40 -2 -103 -2 -140 0 -37 2 -4 3 73
3 77 0 107 -2 67 -3z m39 -53 c4 -19 12 -100 18 -180 7 -80 14 -167 17 -195 4
-39 -3 -24 -30 67 -20 65 -44 135 -56 157 -28 57 -84 107 -138 126 -64 21
-217 37 -332 33 -89 -3 -95 -4 -107 -28 -9 -18 -13 -95 -13 -282 0 -237 1
-259 18 -276 18 -18 18 -19 0 -42 -18 -22 -19 -42 -16 -326 4 -366 -4 -344
128 -344 129 0 285 18 363 41 119 35 173 107 221 291 14 51 25 91 25 88 1 -3
-6 -68 -14 -145 -8 -77 -15 -170 -15 -206 0 -96 -8 -103 -104 -90 -44 6 -256
11 -494 12 -229 1 -402 5 -384 9 46 11 78 44 91 95 15 60 15 1050 0 1110 -13
53 -46 86 -96 95 -21 4 142 9 362 10 220 1 423 5 450 10 85 13 98 10 106 -30z
m2107 20 c381 0 432 -2 432 -15 0 -9 -196 -302 -436 -651 -240 -349 -433 -638
-430 -641 9 -9 605 17 649 28 83 22 157 128 204 292 l23 82 -5 -57 c-3 -31
-10 -126 -16 -210 -6 -84 -14 -157 -19 -162 -5 -5 -28 -4 -54 3 -30 7 -195 11
-505 11 -289 0 -462 4 -466 10 -3 5 -1 18 5 29 5 11 201 297 435 635 234 339
425 620 425 626 0 13 -81 12 -370 -4 -160 -9 -246 -18 -270 -28 -68 -29 -111
-99 -156 -258 -13 -47 -22 -71 -19 -55 2 17 10 104 16 195 8 115 16 168 26
176 9 8 28 9 56 3 23 -4 237 -8 475 -9z m-1513 -7 c-45 -11 -45 -6 -45 -615 0
-616 0 -619 48 -662 12 -10 36 -22 54 -26 19 -5 -63 -8 -192 -8 -124 0 -211 3
-195 7 49 12 71 28 89 65 14 30 16 96 16 586 0 490 -2 556 -16 586 -18 38 -41
54 -94 65 -19 4 53 7 160 7 107 0 186 -2 175 -5z m447 -22 c97 -31 157 -75
193 -141 25 -48 29 -66 30 -135 0 -68 -4 -89 -28 -137 -46 -93 -124 -150 -267
-192 -81 -25 -83 -26 -36 -23 l49 2 38 -110 c98 -280 261 -532 424 -653 69
-51 44 -49 -55 5 -225 123 -400 322 -547 621 l-65 132 -56 1 c-51 2 -48 3 26
9 102 9 194 51 247 113 90 105 100 330 18 427 -26 32 -95 71 -148 85 -16 4
-77 11 -135 15 -90 7 -80 8 70 5 147 -2 186 -6 242 -24z m2098 16 c-59 -16
-86 -56 -95 -140 -4 -34 -5 -287 -3 -562 3 -446 5 -503 20 -531 23 -41 42 -56
86 -65 20 -3 -64 -7 -188 -7 -130 0 -211 3 -192 8 46 11 78 44 91 95 7 29 11
217 11 555 0 338 -4 526 -11 555 -13 53 -46 86 -96 95 -21 4 66 8 192 8 194 0
223 -1 185 -11z m-3405 -574 c0 -98 3 -200 7 -228 7 -49 6 -48 -21 26 -48 129
-80 159 -165 159 -25 0 -48 5 -51 10 -4 6 14 10 47 10 29 0 64 6 78 13 33 16
66 68 87 133 9 30 17 54 17 54 1 0 1 -80 1 -177z m312 115 c-3 -8 -6 -5 -6 6
-1 11 2 17 5 13 3 -3 4 -12 1 -19z m60 -390 c-3 -8 -6 -5 -6 6 -1 11 2 17 5
13 3 -3 4 -12 1 -19z m2450 -30 c-3 -7 -5 -2 -5 12 0 14 2 19 5 13 2 -7 2 -19
0 -25z"/>
<path d="M3386 2938 c-7 -27 -7 -78 1 -60 2 6 9 10 14 6 13 -8 22 22 15 51 -8
31 -22 32 -30 3z"/>
<path d="M3391 2861 c-10 -6 -12 -25 -9 -70 7 -105 38 -92 38 17 0 62 -4 69
-29 53z"/>
</svg>
